<?xml version="1.0" encoding="UTF-8"?>
<svg xmlns="http://www.w3.org/2000/svg" xmlns:xlink="http://www.w3.org/1999/xlink" width="35px" height="40px" viewBox="0 0 35 40" version="1.1">
<g id="surface1">
<path style=" stroke:none;fill-rule:nonzero;fill:#A6A6A6;fill-opacity:1;" d="M 34.265625 21.765625 C 35.242188 20.789062 35.242188 19.203125 34.265625 18.226562 L 21.765625 5.726562 C 20.789062 4.75 19.203125 4.75 18.226562 5.726562 C 17.25 6.703125 17.25 8.289062 18.226562 9.265625 L 26.46875 17.5 L 2.5 17.5 C 1.117188 17.5 0 18.617188 0 20 C 0 21.382812 1.117188 22.5 2.5 22.5 L 26.460938 22.5 L 18.234375 30.734375 C 17.257812 31.710938 17.257812 33.296875 18.234375 34.273438 C 19.210938 35.25 20.796875 35.25 21.773438 34.273438 L 34.273438 21.773438 Z M 34.265625 21.765625 "/>
</g>
</svg>
