<svg width="115" height="115" viewBox="0 0 115 115" fill="none" xmlns="http://www.w3.org/2000/svg">
<path d="M16.9846 49.4703L14.9984 49.076L13.9761 54.2255L12.2547 53.8838L6.69434 47.3816L7.09742 45.3512L13.6446 46.651L13.9075 45.3268L15.6731 45.6773L15.4102 47.0015L17.3964 47.3958L16.9846 49.4703ZM12.6399 51.7122L13.2328 48.7255L9.51045 47.9865L12.6399 51.7122Z" fill="#5C5C5C"/>
<path d="M16.9846 49.4703L14.9984 49.076L13.9761 54.2255L12.2547 53.8838L6.69434 47.3816L7.09742 45.3512L13.6446 46.651L13.9075 45.3268L15.6731 45.6773L15.4102 47.0015L17.3964 47.3958L16.9846 49.4703ZM12.6399 51.7122L13.2328 48.7255L9.51045 47.9865L12.6399 51.7122Z" fill="#5C5C5C"/>
<path d="M19.796 41.0135C19.4267 41.8232 18.9049 42.437 18.2307 42.8549C17.5564 43.2728 16.8222 43.3885 16.0279 43.202L16.2899 41.3266C16.6647 41.4206 17.0123 41.3814 17.3328 41.2088C17.6484 41.023 17.8933 40.7391 18.0676 40.357C18.2834 39.8839 18.3072 39.4221 18.139 38.9716C17.9708 38.5212 17.6365 38.1819 17.1361 37.9536C16.6448 37.7295 16.1739 37.7016 15.7234 37.8698C15.2772 38.0289 14.9482 38.3405 14.7365 38.8045C14.5664 39.1775 14.5142 39.5329 14.5799 39.8707C14.6457 40.2084 14.8303 40.4905 15.1337 40.7168L13.9191 42.0422L8.70585 39.6642L11.4698 33.6048L13.1075 34.3519L11.0905 38.7736L12.9193 39.6077C12.7884 39.0754 12.8558 38.5181 13.1214 37.9358C13.5737 36.9441 14.2611 36.2685 15.1836 35.9089C16.0969 35.5451 17.0449 35.5873 18.0275 36.0356C19.0101 36.4838 19.6679 37.1741 20.001 38.1064C20.325 39.0346 20.2567 40.0036 19.796 41.0135Z" fill="#5C5C5C"/>
<path d="M19.796 41.0135C19.4267 41.8232 18.9049 42.437 18.2307 42.8549C17.5564 43.2728 16.8222 43.3885 16.0279 43.202L16.2899 41.3266C16.6647 41.4206 17.0123 41.3814 17.3328 41.2088C17.6484 41.023 17.8933 40.7391 18.0676 40.357C18.2834 39.8839 18.3072 39.4221 18.139 38.9716C17.9708 38.5212 17.6365 38.1819 17.1361 37.9536C16.6448 37.7295 16.1739 37.7016 15.7234 37.8698C15.2772 38.0289 14.9482 38.3405 14.7365 38.8045C14.5664 39.1775 14.5142 39.5329 14.5799 39.8707C14.6457 40.2084 14.8303 40.4905 15.1337 40.7168L13.9191 42.0422L8.70585 39.6642L11.4698 33.6048L13.1075 34.3519L11.0905 38.7736L12.9193 39.6077C12.7884 39.0754 12.8558 38.5181 13.1214 37.9358C13.5737 36.9441 14.2611 36.2685 15.1836 35.9089C16.0969 35.5451 17.0449 35.5873 18.0275 36.0356C19.0101 36.4838 19.6679 37.1741 20.001 38.1064C20.325 39.0346 20.2567 40.0036 19.796 41.0135Z" fill="#5C5C5C"/>
<path d="M24.6583 32.727C23.8512 33.7716 22.8233 34.3169 21.5745 34.363C20.3239 34.3951 19.0379 33.9006 17.7164 32.8796C16.3949 31.8585 15.5958 30.742 15.3191 29.5299C15.0407 28.3038 15.3019 27.1724 16.1028 26.1358C16.9099 25.0912 17.9387 24.5529 19.1893 24.5208C20.4381 24.4747 21.7232 24.9622 23.0447 25.9832C24.3662 27.0043 25.1662 28.1278 25.4447 29.354C25.7213 30.566 25.4592 31.6904 24.6583 32.727ZM23.1864 31.5898C23.6083 31.0438 23.6962 30.423 23.4501 29.7274C23.1961 29.0257 22.63 28.3355 21.7516 27.6569C20.8732 26.9782 20.0595 26.6085 19.3103 26.5478C18.5672 26.4791 17.9847 26.7178 17.5628 27.2638C17.1409 27.8098 17.057 28.4337 17.311 29.1354C17.557 29.831 18.1232 30.5212 19.0095 31.2059C19.8957 31.8907 20.7065 32.2644 21.4417 32.3269C22.1768 32.3894 22.7584 32.1438 23.1864 31.5898Z" fill="#5C5C5C"/>
<path d="M24.6583 32.727C23.8512 33.7716 22.8233 34.3169 21.5745 34.363C20.3239 34.3951 19.0379 33.9006 17.7164 32.8796C16.3949 31.8585 15.5958 30.742 15.3191 29.5299C15.0407 28.3038 15.3019 27.1724 16.1028 26.1358C16.9099 25.0912 17.9387 24.5529 19.1893 24.5208C20.4381 24.4747 21.7232 24.9622 23.0447 25.9832C24.3662 27.0043 25.1662 28.1278 25.4447 29.354C25.7213 30.566 25.4592 31.6904 24.6583 32.727ZM23.1864 31.5898C23.6083 31.0438 23.6962 30.423 23.4501 29.7274C23.1961 29.0257 22.63 28.3355 21.7516 27.6569C20.8732 26.9782 20.0595 26.6085 19.3103 26.5478C18.5672 26.4791 17.9847 26.7178 17.5628 27.2638C17.1409 27.8098 17.057 28.4337 17.311 29.1354C17.557 29.831 18.1232 30.5212 19.0095 31.2059C19.8957 31.8907 20.7065 32.2644 21.4417 32.3269C22.1768 32.3894 22.7584 32.1438 23.1864 31.5898Z" fill="#5C5C5C"/>
<path d="M31.5984 25.5384C30.5658 26.3607 29.4376 26.6457 28.2138 26.3931C26.9915 26.1265 25.8602 25.34 24.8198 24.0337C23.7794 22.7274 23.2691 21.4527 23.289 20.2096C23.3105 18.9524 23.8336 17.9158 24.8583 17.0997C25.8909 16.2773 27.0183 15.9995 28.2405 16.2661C29.4644 16.5186 30.5965 17.298 31.6369 18.6044C32.6773 19.9107 33.1868 21.1924 33.1653 22.4496C33.1454 23.6927 32.6231 24.7223 31.5984 25.5384ZM30.4396 24.0835C30.9793 23.6536 31.2125 23.0716 31.1392 22.3374C31.0596 21.5954 30.674 20.7903 29.9825 19.922C29.291 19.0537 28.5886 18.5009 27.8754 18.2635C27.17 18.0199 26.5475 18.113 26.0077 18.5429C25.468 18.9728 25.2379 19.5587 25.3175 20.3007C25.3909 21.0349 25.7764 21.84 26.4742 22.7161C27.172 23.5922 27.8704 24.1481 28.5695 24.3839C29.2687 24.6197 29.892 24.5196 30.4396 24.0835Z" fill="#5C5C5C"/>
<path d="M31.5984 25.5384C30.5658 26.3607 29.4376 26.6457 28.2138 26.3931C26.9915 26.1265 25.8602 25.34 24.8198 24.0337C23.7794 22.7274 23.2691 21.4527 23.289 20.2096C23.3105 18.9524 23.8336 17.9158 24.8583 17.0997C25.8909 16.2773 27.0183 15.9995 28.2405 16.2661C29.4644 16.5186 30.5965 17.298 31.6369 18.6044C32.6773 19.9107 33.1868 21.1924 33.1653 22.4496C33.1454 23.6927 32.6231 24.7223 31.5984 25.5384ZM30.4396 24.0835C30.9793 23.6536 31.2125 23.0716 31.1392 22.3374C31.0596 21.5954 30.674 20.7903 29.9825 19.922C29.291 19.0537 28.5886 18.5009 27.8754 18.2635C27.17 18.0199 26.5475 18.113 26.0077 18.5429C25.468 18.9728 25.2379 19.5587 25.3175 20.3007C25.3909 21.0349 25.7764 21.84 26.4742 22.7161C27.172 23.5922 27.8704 24.1481 28.5695 24.3839C29.2687 24.6197 29.892 24.5196 30.4396 24.0835Z" fill="#5C5C5C"/>
<path d="M44.8775 10.5191L46.4352 10.0224L48.6409 16.9392L47.1118 17.4268L45.8403 13.4396L45.0396 18.0876L43.9821 18.4248L40.615 15.0744L41.8956 19.0902L40.3664 19.5778L38.1607 12.661L39.7328 12.1597L43.9002 16.3412L44.8775 10.5191Z" fill="#5C5C5C"/>
<path d="M44.8775 10.5191L46.4352 10.0224L48.6409 16.9392L47.1118 17.4268L45.8403 13.4396L45.0396 18.0876L43.9821 18.4248L40.615 15.0744L41.8956 19.0902L40.3664 19.5778L38.1607 12.661L39.7328 12.1597L43.9002 16.3412L44.8775 10.5191Z" fill="#5C5C5C"/>
<path d="M50.3445 16.517L50.2762 15.4843L52.7493 12.6449C53.6998 11.5599 54.3032 10.8335 54.5595 10.4658C55.0428 9.74232 55.2677 9.12614 55.234 8.61725C55.2024 8.1383 55.0067 7.75537 54.647 7.46848C54.2972 7.18092 53.848 7.05528 53.2992 7.09156C52.8003 7.12455 52.3851 7.28729 52.0537 7.57979C51.7216 7.86231 51.5261 8.24103 51.4673 8.71594L50.0307 8.35993C50.1482 7.56044 50.5021 6.92571 51.0924 6.45575C51.682 5.97581 52.4109 5.70714 53.279 5.64975C54.2768 5.58379 55.1129 5.79911 55.7871 6.29571C56.4607 6.78234 56.8255 7.44973 56.8815 8.29788C56.9027 8.61718 56.8599 8.95574 56.7533 9.31355C56.6466 9.67136 56.536 9.96931 56.4215 10.2074C56.307 10.4455 56.1026 10.7646 55.8083 11.1649C55.5134 11.5552 55.3147 11.8089 55.2122 11.9259C55.1097 12.0429 54.8911 12.2979 54.5563 12.6908L52.6004 14.9398L57.3749 14.6241L57.4689 16.046L50.3445 16.517Z" fill="#5C5C5C"/>
<path d="M50.3445 16.517L50.2762 15.4843L52.7493 12.6449C53.6998 11.5599 54.3032 10.8335 54.5595 10.4658C55.0428 9.74232 55.2677 9.12614 55.234 8.61725C55.2024 8.1383 55.0067 7.75537 54.647 7.46848C54.2972 7.18092 53.848 7.05528 53.2992 7.09156C52.8003 7.12455 52.3851 7.28729 52.0537 7.57979C51.7216 7.86231 51.5261 8.24103 51.4673 8.71594L50.0307 8.35993C50.1482 7.56044 50.5021 6.92571 51.0924 6.45575C51.682 5.97581 52.4109 5.70714 53.279 5.64975C54.2768 5.58379 55.1129 5.79911 55.7871 6.29571C56.4607 6.78234 56.8255 7.44973 56.8815 8.29788C56.9027 8.61718 56.8599 8.95574 56.7533 9.31355C56.6466 9.67136 56.536 9.96931 56.4215 10.2074C56.307 10.4455 56.1026 10.7646 55.8083 11.1649C55.5134 11.5552 55.3147 11.8089 55.2122 11.9259C55.1097 12.0429 54.8911 12.2979 54.5563 12.6908L52.6004 14.9398L57.3749 14.6241L57.4689 16.046L50.3445 16.517Z" fill="#5C5C5C"/>
<path d="M65.0673 16.5252L67.0818 9.72218L72.7629 11.4044L70.7485 18.2074L70.0294 17.9945L71.8394 11.8819L67.5965 10.6255L65.7865 16.7381L65.0673 16.5252Z" fill="#5C5C5C"/>
<path d="M82.3125 15.5511C83.1703 16.0651 83.7006 16.7852 83.9035 17.7111C84.1149 18.6423 83.9404 19.5753 83.3801 20.5103C82.8198 21.4452 82.0792 22.039 81.1584 22.2916C80.2428 22.5356 79.3603 22.4031 78.5111 21.8942C77.9622 21.5652 77.5521 21.1504 77.2808 20.6498C77.0148 20.1406 76.9064 19.5918 76.9559 19.0036L74.6272 22.8892L73.9839 22.5037L79.1732 13.8446L79.8166 14.2301L79.0301 15.5425C79.5255 15.2215 80.0579 15.0626 80.6273 15.0658C81.2018 15.0603 81.7636 15.2221 82.3125 15.5511ZM78.7886 21.2561C79.4748 21.6673 80.1866 21.7733 80.924 21.574C81.6613 21.3747 82.2613 20.889 82.7239 20.117C83.1866 19.345 83.332 18.5869 83.1601 17.8427C82.9933 17.0899 82.5669 16.5079 81.8807 16.0967C81.1859 15.6803 80.4758 15.5812 79.7505 15.7994C79.0337 16.0227 78.4466 16.5161 77.9891 17.2795C77.5367 18.0343 77.3811 18.7804 77.5221 19.5178C77.6717 20.2603 78.0939 20.8397 78.7886 21.2561Z" fill="#5C5C5C"/>
<path d="M86.0401 27.468C85.3253 26.7264 84.9733 25.8713 84.984 24.9026C84.9947 23.9339 85.3888 23.0747 86.1664 22.3252C86.9727 21.5479 87.8567 21.1681 88.8182 21.1858C89.7938 21.2037 90.6425 21.587 91.3643 22.3358C92.0861 23.0845 92.438 23.9467 92.4201 24.9224C92.4094 25.8911 92.0008 26.7641 91.1945 27.5414C90.4169 28.2909 89.5439 28.6532 88.5755 28.6284C87.607 28.6035 86.7619 28.2167 86.0401 27.468ZM86.5369 26.9891C87.0991 27.5723 87.7655 27.8674 88.5363 27.8745C89.3139 27.8887 90.0196 27.5905 90.6531 26.9798C91.3155 26.3413 91.6538 25.6332 91.6681 24.8555C91.6965 24.0781 91.4297 23.3978 90.8675 22.8146C90.2984 22.2243 89.6249 21.929 88.847 21.9289C88.0762 21.9218 87.3597 22.2375 86.6973 22.876C86.0637 23.4867 85.7363 24.1773 85.7151 24.9478C85.6939 25.7183 85.9678 26.3987 86.5369 26.9891Z" fill="#5C5C5C"/>
<path d="M92.0944 33.8816L98.3783 30.5875L98.7265 31.2518L93.5585 33.9609L100.851 35.3038L101.136 35.8485L94.8522 39.1426L94.504 38.4783L99.6853 35.7623L92.3869 34.4396L92.0944 33.8816Z" fill="#5C5C5C"/>
<path d="M97.6238 46.7943C97.4576 46.0835 97.4905 45.4339 97.7226 44.8456C97.9547 44.2572 98.3432 43.8326 98.8881 43.5716L99.2463 44.1811C98.8309 44.3809 98.5362 44.7015 98.3621 45.1427C98.188 45.584 98.1648 46.0772 98.2923 46.6225C98.4221 47.1775 98.6546 47.6007 98.9898 47.892C99.3347 48.1811 99.7116 48.2778 100.121 48.1821C100.578 48.0751 100.877 47.8152 101.017 47.4026C101.168 46.9974 101.175 46.4978 101.036 45.9038L100.762 44.7354L101.376 44.5919L101.649 45.7603C101.774 46.2959 101.974 46.7113 102.249 47.0065C102.525 47.3115 102.868 47.4162 103.277 47.3205C103.667 47.2294 103.937 46.9813 104.089 46.5761C104.243 46.1806 104.255 45.7054 104.125 45.1504C104.007 44.644 103.773 44.2366 103.423 43.9281C103.076 43.6293 102.677 43.4813 102.226 43.4842L102.277 42.7791C102.881 42.7713 103.409 42.9661 103.861 43.3635C104.326 43.7684 104.638 44.3116 104.797 44.9932C104.979 45.7722 104.946 46.4424 104.697 47.0038C104.451 47.5749 104.041 47.9276 103.466 48.062C102.726 48.2351 102.12 47.9506 101.649 47.2084C101.554 48.1651 101.088 48.7414 100.251 48.9373C99.6472 49.0785 99.1034 48.9489 98.6196 48.5486C98.1379 48.158 97.806 47.5733 97.6238 46.7943Z" fill="#5C5C5C"/>
<path d="M99.1948 53.556L106.29 53.5788L106.278 57.1787C106.276 57.8487 106.119 58.3682 105.808 58.7372C105.507 59.1163 105.076 59.3049 104.516 59.3031C103.736 59.3006 103.227 59.009 102.989 58.4282C102.707 59.1573 102.121 59.5204 101.231 59.5176C100.581 59.5155 100.076 59.3089 99.7177 58.8977C99.359 58.4966 99.1808 57.916 99.1833 57.156L99.1948 53.556ZM103.332 54.3043L103.323 57.2743C103.322 57.6743 103.426 57.9896 103.635 58.2203C103.854 58.451 104.139 58.5669 104.489 58.568C104.849 58.5692 105.124 58.445 105.315 58.1956C105.506 57.9563 105.602 57.6116 105.603 57.1616L105.612 54.3116L103.332 54.3043ZM99.8675 54.2932L99.8583 57.1431C99.8567 57.6631 99.9754 58.0635 100.214 58.3443C100.464 58.6351 100.813 58.7812 101.263 58.7827C102.173 58.7856 102.63 58.282 102.633 57.272L102.642 54.3021L99.8675 54.2932Z" fill="#5C5C5C"/>
<path d="M98.1037 66.6126C98.3772 65.6196 98.9334 64.8808 99.7722 64.3961C100.611 63.9115 101.551 63.8126 102.592 64.0994C103.672 64.3968 104.449 64.9636 104.924 65.7998C105.406 66.6483 105.509 67.5738 105.233 68.5765C104.957 69.5792 104.395 70.3215 103.546 70.8035C102.707 71.2881 101.748 71.3817 100.668 71.0843C99.627 70.7974 98.8702 70.2311 98.3979 69.3853C97.9256 68.5395 97.8275 67.6153 98.1037 66.6126ZM98.7689 66.7959C98.5538 67.5768 98.6397 68.3006 99.0265 68.9672C99.4107 69.6435 100.027 70.0986 100.875 70.3323C101.762 70.5766 102.544 70.5067 103.22 70.1225C103.904 69.7506 104.353 69.1742 104.568 68.3933C104.786 67.6027 104.696 66.8728 104.3 66.2034C103.913 65.5368 103.276 65.0813 102.389 64.8369C101.541 64.6032 100.78 64.6737 100.106 65.0482C99.4324 65.4227 98.9867 66.0053 98.7689 66.7959Z" fill="#5C5C5C"/>
<path d="M94.2638 73.1091L96.7572 74.6669L96.4949 75.0867C96.0922 75.7312 96.1321 76.2337 96.6144 76.594L101.094 79.8702L98.3918 84.1955L92.9343 80.7859L92.4177 81.6128L89.9243 80.055L90.3217 79.419L92.2554 80.627L95.8001 74.9533L93.8664 73.7452L94.2638 73.1091ZM95.6524 76.4352L93.3317 80.1498L98.1786 83.1779L100.11 80.0866L96.2043 77.2221C95.8979 76.9953 95.714 76.733 95.6524 76.4352Z" fill="#5C5C5C"/>
<path d="M86.9724 86.9022C87.7246 86.2281 88.5808 85.9174 89.541 85.97C90.4938 86.0292 91.3339 86.4647 92.0614 87.2765C92.7888 88.0882 93.137 88.9712 93.106 89.9255C93.0743 90.894 92.6748 91.7219 91.9078 92.4093C91.3567 92.9032 90.7559 93.2067 90.1052 93.3198C89.4472 93.4395 88.8542 93.3398 88.3264 93.0205L88.6389 92.3578C89.0286 92.6128 89.4844 92.6945 90.0064 92.6027C90.5276 92.525 91.0042 92.2926 91.4361 91.9055C92.0319 91.3716 92.3369 90.7155 92.3512 89.9373C92.3722 89.1666 92.089 88.4535 91.5017 87.7982C90.9144 87.1428 90.2365 86.7835 89.4681 86.7202C88.6922 86.6635 88.0026 86.9055 87.3994 87.4461C86.9749 87.8265 86.6923 88.2678 86.5515 88.77C86.4107 89.2721 86.4491 89.7345 86.6667 90.1572L85.9839 90.4066C85.7242 89.8471 85.6864 89.2431 85.8706 88.5946C86.0541 87.9602 86.4214 87.3961 86.9724 86.9022Z" fill="#5C5C5C"/>
<path d="M78.7904 93.4344L81.7294 99.0915L84.0189 97.9021L84.3508 98.541L79.1197 101.259L78.7877 100.62L81.0639 99.4373L78.1249 93.7802L78.7904 93.4344Z" fill="#5C5C5C"/>
<path d="M71.8319 96.8807L73.5518 103.764L70.0592 104.637C69.4092 104.799 68.8671 104.775 68.433 104.564C67.9916 104.365 67.7031 103.994 67.5673 103.45C67.3782 102.694 67.5359 102.129 68.0405 101.755C67.2644 101.661 66.7684 101.181 66.5527 100.318C66.3951 99.6874 66.4716 99.1478 66.7821 98.6991C67.0829 98.2529 67.6019 97.9376 68.3393 97.7534L71.8319 96.8807ZM72.1224 101.075L69.241 101.795C68.8529 101.892 68.5728 102.071 68.4006 102.33C68.2308 102.599 68.1883 102.904 68.2731 103.243C68.3604 103.592 68.5483 103.829 68.8369 103.953C69.1158 104.079 69.4736 104.087 69.9101 103.978L72.6751 103.287L72.1224 101.075ZM71.2824 97.7137L68.5175 98.4046C68.013 98.5307 67.654 98.7441 67.4405 99.0448C67.2198 99.3576 67.1639 99.7324 67.273 100.169C67.4936 101.052 68.0939 101.371 69.0737 101.126L71.9552 100.406L71.2824 97.7137Z" fill="#5C5C5C"/>
<path d="M59.1455 99.0143C60.1753 99.0335 61.0289 99.3895 61.7061 100.082C62.3833 100.775 62.7118 101.661 62.6917 102.741C62.6709 103.861 62.3142 104.754 61.6216 105.422C60.9189 106.099 60.0476 106.427 59.0078 106.408C57.968 106.389 57.1096 106.028 56.4325 105.325C55.7553 104.632 55.4271 103.726 55.448 102.606C55.4681 101.526 55.8294 100.653 56.532 99.9858C57.2345 99.3188 58.1057 98.995 59.1455 99.0143ZM59.1327 99.7042C58.3228 99.6891 57.6428 99.9515 57.0926 100.491C56.5325 101.031 56.2442 101.741 56.2278 102.621C56.2107 103.54 56.472 104.28 57.0116 104.841C57.5411 105.411 58.2108 105.703 59.0206 105.718C59.8405 105.733 60.5256 105.466 61.0759 104.916C61.6261 104.376 61.9097 103.647 61.9269 102.727C61.9432 101.847 61.6866 101.127 61.1569 100.567C60.6273 100.007 59.9525 99.7195 59.1327 99.7042Z" fill="#5C5C5C"/>
</svg>
